<?xml version="1.0" encoding="utf-8"?>
<svg version="1.1" xmlns:xlink="http://www.w3.org/1999/xlink" width="11px" height="10px" xmlns="http://www.w3.org/2000/svg">
  <g transform="matrix(1 0 0 1 -446 -356 )">
    <path d="M 8.17440077707625 9.80744600938967  L 8.17227663914522 9.80741784037559  C 8.04538475850202 9.80309388956455  7.92108838457004 9.77234064231824  7.80833103448276 9.71737089201878  L 5.31755492957746 8.54479812206573  L 2.80766158329286 9.71739906103287  C 2.55044738939054 9.84494763549216  2.23864230752952 9.82400499960694  2.00326151853651 9.66337089201878  C 1.76552129857889 9.49604329848145  1.64716805023544 9.21755717025657  1.69668758296908 8.942  L 2.21418941233608 6.41669483568075  L 0.240376622956127 4.68430046948357  C 0.0329686479872501 4.48461354730483  -0.047736674796129 4.19699650415195  0.0278531325886348 3.92691079812206  C 0.114629973612961 3.65601025348711  0.362114167454728 3.45823657899812  0.660108272624251 3.42165258215962  L 3.40113375424963 2.95241314553991  L 4.62791814796827 0.607699530516432  C 4.75660172538971 0.357825239909677  5.02372266519541 0.197440014447082  5.31862198478226 0.192985915492958  C 5.61502644616595 0.19263992855267  5.88462316509709 0.354514002841684  6.00931584911769 0.607699530516432  L 7.23558167395176 2.95291079812207  L 9.97501155900923 3.4031455399061  C 10.2684378050772 3.44069928085372  10.5097270964551 3.6395377151955  10.588139485187 3.90840375586854  C 10.6830453362532 4.17463928188818  10.6086223969999 4.46852335737695  10.3963388052453 4.66579342723005  L 8.42305455722843 6.41669483568075  L 8.92142917273758 8.942  C 8.97469207675 9.21792105426919  8.85557814216852 9.49820620055692  8.6148652096487 9.66337089201878  C 8.49055080788312 9.75857767832652  8.33463004595908 9.80957907688115  8.17440077707625 9.80744600938967  Z " fill-rule="nonzero" fill="#f4ea2a" stroke="none" transform="matrix(1 0 0 1 446 356 )" />
  </g>
</svg>