<?xml version="1.0" encoding="utf-8"?>
<svg version="1.1" xmlns:xlink="http://www.w3.org/1999/xlink" width="265px" height="91px" xmlns="http://www.w3.org/2000/svg">
  <g transform="matrix(1 0 0 1 -44 -869 )">
    <path d="M 263.795180722892 89.5783132530121  L 0.542168674698814 89.5783132530121  C -2.99424861192719 79.9638554216867  16.0875133799621 58.7314843195724  40.9036144578314 55.2409638554217  C 60.7257640953344 52.4528699990962  63.326856653817 78.401935106476  79.4578313253013 72.7108433734941  C 110.053697509785 61.9164627082176  86.2618741194273 9.43832024901474  115.602409638554 1.02409638554218  C 131.309408790559 -3.48032743460885  132.851535093147 9.32528263047504  152.349397590362 23.3132530120482  C 174.849209854179 39.4548535378597  169.191979175307 55.4091415381836  190.301204819277 55.2409638554217  C 211.02064946638 55.0758915667629  210.148763026698 20.3328474093917  227.048192771084 23.3132530120482  C 253.352836533577 27.9523744990711  251.546184738956 67.4899598393574  263.795180722892 89.5783132530121  Z " fill-rule="nonzero" fill="#17b3a8" stroke="none" fill-opacity="0.23921568627451" transform="matrix(1 0 0 1 44 869 )" />
    <path d="M 0.542168674698814 89.5783132530121  C -2.99424861192719 79.9638554216867  16.0875133799621 58.7314843195724  40.9036144578314 55.2409638554217  C 60.7257640953344 52.4528699990962  63.326856653817 78.401935106476  79.4578313253013 72.7108433734941  C 110.053697509785 61.9164627082176  86.2618741194273 9.43832024901474  115.602409638554 1.02409638554218  C 131.309408790559 -3.48032743460885  132.851535093147 9.32528263047504  152.349397590362 23.3132530120482  C 174.849209854179 39.4548535378597  169.191979175307 55.4091415381836  190.301204819277 55.2409638554217  C 211.02064946638 55.0758915667629  210.148763026698 20.3328474093917  227.048192771084 23.3132530120482  C 253.352836533577 27.9523744990711  251.546184738956 67.4899598393574  263.795180722892 89.5783132530121  " stroke-width="1" stroke="#17b3a8" fill="none" transform="matrix(1 0 0 1 44 869 )" />
  </g>
</svg>