<?xml version="1.0" encoding="utf-8"?>
<svg version="1.1" xmlns:xlink="http://www.w3.org/1999/xlink" width="10px" height="10px" xmlns="http://www.w3.org/2000/svg">
  <g transform="matrix(1 0 0 1 -40 -954 )">
    <path d="M 45 954  C 47.8 954  50 956.2  50 959  C 50 961.8  47.8 964  45 964  C 42.2 964  40 961.8  40 959  C 40 956.2  42.2 954  45 954  Z " fill-rule="nonzero" fill="#ffffff" stroke="none" />
    <path d="M 45 954.5  C 47.52 954.5  49.5 956.48  49.5 959  C 49.5 961.52  47.52 963.5  45 963.5  C 42.48 963.5  40.5 961.52  40.5 959  C 40.5 956.48  42.48 954.5  45 954.5  Z " stroke-width="1" stroke="#17b3a8" fill="none" />
  </g>
</svg>