<?xml version="1.0" encoding="utf-8"?>
<svg version="1.1" xmlns:xlink="http://www.w3.org/1999/xlink" width="10px" height="11px" xmlns="http://www.w3.org/2000/svg">
  <g transform="matrix(1 0 0 1 -108 -409 )">
    <path d="M 9.9275 6.226  L 9.921875 1.6005  L 9.4325 1.595  C 9.42125 1.595  8.33 1.573  7.199375 1.1495  C 6.040625 0.7095  5.298125 0.209  5.2925 0.2035  L 5 0  L 4.7075 0.198  C 4.701875 0.2035  3.95375 0.704  2.800625 1.144  C 1.675625 1.573  0.57875 1.595  0.573125 1.595  L 0.0837499999999998 1.6005  L 0.0837499999999998 6.226  C 0.0837499999999998 8.547  3.284375 11  5.005625 11  C 6.726875 11  9.9275 8.547  9.9275 6.226  Z M 8.155625 3.41  L 2.913125 8.2995  L 2.913125 3.817  L 2.474375 3.817  L 2.474375 3.41  L 4.22375 3.41  L 4.22375 5.445  L 6.423125 3.41  L 8.155625 3.41  Z " fill-rule="nonzero" fill="#22ddd2" stroke="none" fill-opacity="0.996078431372549" transform="matrix(1 0 0 1 108 409 )" />
  </g>
</svg>