<?xml version="1.0" encoding="utf-8"?>
<svg version="1.1" xmlns:xlink="http://www.w3.org/1999/xlink" width="30px" height="30px" xmlns="http://www.w3.org/2000/svg">
  <g transform="matrix(1 0 0 1 -446 -396 )">
    <path d="M 30 15  C 30 6.75  23.25 0  15 0  C 6.75 0  0 6.75  0 15  C 0 23.25  6.75 30  15 30  C 23.25 30  30 23.25  30 15  Z M 21.15 24.975  C 21.375 25.5  18.6 27.6  15 27.6  C 11.4 27.6  9 25.575  9.15 24.975  C 9.3 24.525  9.45 24.075  9.6 23.85  C 9.9 23.475  11.7 22.05  15 22.05  C 18.225 22.05  20.325 23.475  20.7 23.85  C 20.85 24.075  21.075 24.525  21.15 24.975  Z M 21.15 14.025  C 21.15 17.325  18.525 20.025  15.15 20.025  C 11.85 20.025  9.15 17.325  9.15 14.025  C 9.15 10.725  11.85 8.025  15.15 8.025  C 18.45 8.025  21.15 10.725  21.15 14.025  Z " fill-rule="nonzero" fill="#17b3a8" stroke="none" fill-opacity="0.352941176470588" transform="matrix(1 0 0 1 446 396 )" />
  </g>
</svg>