<?xml version="1.0" encoding="utf-8"?>
<svg version="1.1" xmlns:xlink="http://www.w3.org/1999/xlink" width="15px" height="15px" xmlns="http://www.w3.org/2000/svg">
  <g>
    <path d="M 3.03975053267045 13.8739679509943  L 3.03795276988636 13.8739679509943  L 1.58536044034091 13.8739679509943  C 0.908133095956337 13.8724818933162  0.359780003709136 13.3233247642769  0.359286221590909 12.6460959694602  L 0.35928622159091 6.17414994673296  C 0.35978116432195 5.4970673818895  0.908278420055243 4.94816800206842  1.58536044034091 4.94717684659091  L 3.33458362926136 4.94717684659091  C 3.66401995486604 4.94745771823884  3.93093200371963 5.21459742864458  3.93093200371963 5.54403387398236  C 3.93093200371963 5.55122676002555  3.93080197863463 5.55841905840812  3.9305419921875 5.56560724431818  L 3.63481001420455 13.3022793856534  C 3.62134392458404 13.621351108934  3.35910557121745 13.8732900707787  3.03975053267045 13.8739679509943  Z M 2.2496337890625 6.13639692826705  L 2.03390225497159 6.13729580965909  C 1.76687681001868 6.1377884722887  1.55039371499029 6.35386992892186  1.54940518465909 6.62089399857955  L 1.54940518465909 12.1984530362216  C 1.55039106524119 12.4656239488509  1.76673134234223 12.681964225952  2.03390225497159 12.6829501065341  C 2.27493280309108 12.6831627854505  2.47321975786347 12.4932038827785  2.48334295099432 12.2523859197443  L 2.69907448508523 6.60111860795455  C 2.69924770882787 6.59602676270975  2.699334339482 6.59093234008384  2.699334339482 6.58583754916939  C 2.699334339482 6.3376183068027  2.49811288582596 6.13639685314666  2.24989364345927 6.13639685314666  Z M 11.6744051846591 13.8739679509943  L 11.6627197265625 13.8739679509943  L 5.51077547940341 13.8739679509943  C 4.8148932274395 13.8739682506018  4.2514731572026 13.3105481803648  4.2514731572026 12.6155343017381  C 4.2514731572026 12.5999495581548  4.25176266492484 12.5843661591869  4.25234153053977 12.5687921697443  L 4.49863503196023 6.15617231889205  C 4.52519810813553 5.48053813278635  5.08091302396509 4.94665487436438  5.75706898082386 4.94717684659091  L 6.06178977272727 4.94717684659091  C 6.13659125588309 4.94653230850746  6.20317701878098 4.89963588410089  6.22898171164773 4.82942338423296  L 7.19078480113636 2.13277920809659  C 7.48169839584256 1.32460404630213  8.24832799098501 0.785778029639564  9.10726792586194 0.785778029639564  C 10.2321975322678 0.785778029639564  11.1441331602369 1.69771365760873  11.1441331602369 2.82264326401456  C 11.1441331602369 2.91753155725724  11.1375025486547 3.0123038756704  11.1242897727273 3.10626775568182  L 10.8896817294034 4.74402965198864  C 10.888665190157 4.75178064186353  10.8881552970195 4.7595896835292  10.8881552970195 4.76740704856354  C 10.8881552970195 4.86669474551022  10.9686438784819 4.94718332697264  11.0679315754286 4.94718332697264  C 11.0684403931013 4.94718332697264  11.0689492084811 4.94718116682593  11.0694580078125 4.94717684659091  L 12.8528386896307 4.94717684659091  C 13.8353049925171 4.94813587532439  14.6333124375618 5.74092758543415  14.6407137784091 6.72336647727273  C 14.6416117331222 6.7314314923292  14.6416117331222 6.73957125980148  14.6407137784091 6.74763627485796  L 14.6290283203125 6.85550204190341  L 14.6290283203125 6.87527743252841  L 13.4604825106534 12.1436212713068  C 13.459604890315 12.1525886636731  13.459604890315 12.1616203207019  13.4604825106534 12.1705877130682  C 13.414470482989 13.1237551590142  12.6286822068205 13.8731606866132  11.6744051846591 13.8739679509943  Z M 5.64380992542614 7.34539240056818  L 5.49100008877841 11.3777743252841  C 5.49042122316347 11.3933483147267  5.49013171544123 11.4089317136945  5.49013171544123 11.4245164572779  C 5.49013171544123 12.1195303359046  6.05355178567814 12.6829504061415  6.74856566430487 12.6829504061415  L 11.6654163707386 12.6829501065341  C 11.9960444015711 12.6829501065341  12.2640713778409 12.4149231302642  12.2640713778409 12.0842950994318  L 12.2775545987216 11.9647438742898  L 12.2775545987216 11.9449684836648  L 13.4461004083807 6.71257990056818  C 13.4501539457291 6.69149946833563  13.4501539457291 6.6698397539655  13.4461004083807 6.64875932173295  C 13.4025373791199 6.35547463732018  13.1511377683636 6.13807892528318  12.8546364524148 6.13729580965909  L 9.69776500355113 6.13729580965909  C 9.6972562042198 6.13730012989411  9.69674738883987 6.13730229004081  9.69623857116723 6.13730229004081  C 9.59695087422056 6.13730229004081  9.51646229275814 6.0568137085784  9.51646229275814 5.95752601163172  C 9.51646229275814 5.94970864659737  9.51697218589562 5.94189960493171  9.51798872514205 5.93414861505682  L 9.94585626775568 2.93817693536932  C 9.95169482007073 2.89798968527836  9.95462551440682 2.85743347124127  9.95462551440682 2.81682431263131  C 9.95462551440682 2.35066857546666  9.57673162444078 1.97277468550063  9.11057588727614 1.97277468550063  C 9.10975019364045 1.97277468550063  9.10892450044924 1.97277589710589  9.10809881036932 1.9727783203125  C 8.75066168605616 1.97318051818102  8.4319737897783 2.19798857142443  8.31168989701704 2.53457919034091  L 7.07033469460227 6.01864346590909  C 7.04471254620516 6.08951670654987  6.97760529160852 6.13688653332397  6.90224387428977 6.13729580965909  C 6.22642263828013 6.13675494472516  5.67084256709454 6.67011181306332  5.64380992542614 7.34539240056818  Z " fill-rule="nonzero" fill="#bfbfbf" stroke="none" />
  </g>
</svg>