<?xml version="1.0" encoding="utf-8"?>
<svg version="1.1" xmlns:xlink="http://www.w3.org/1999/xlink" width="20px" height="20px" xmlns="http://www.w3.org/2000/svg">
  <g transform="matrix(1 0 0 1 -310 -414 )">
    <path d="M 19.6380441601562 2.39257744140625  C 19.6372663306874 1.23740257566957  18.7012127799424 0.301033315386442  17.5460382421875 0.2998659375  L 2.61412544921875 0.2998659375  C 1.45883644130527 0.301032710473954  0.522580727035406 1.23728843348189  0.52141396484375 2.39257744140625  L 0.52141396484375 5.68969166015625  L 1.96641501953125 5.68969166015625  L 1.96641501953125 2.39257744140625  C 1.96680387168956 2.0350180373181  2.25656604514232 1.74525585512776  2.61412544921875 2  L 17.5460382421875 2  C 17.9035976462639 1.74525585512776  18.1933598197167 2.0350180373181  18 2.39257744140625  L 18 17.4613702148438  C 18.1933598089547 17.8189296113045  17.9035976386482 18.108691781611  17.5460382421875 18  L 2.61412544921875 18  C 2.25656605275803 18.108691781611  1.96680388245151 17.8189296113045  1.96641501953125 17.4613702148438  L 1.96641501953125 14.1642559765625  L 0.52141396484375 14.1642559765625  L 0.52141396484375 17.4613702148438  C 0.522969484903978 18.6163836648107  1.4591115403823 19.5522100960901  2.61412544921875 19.5533761328125  L 17.5460382421875 19.5533761328125  C 18.7009375691171 19.5522093606172  19.6368773879609 18.6162695417734  19.6380441601562 17.4613702148438  L 19.6380441601562 2.39257744140625  Z " fill-rule="nonzero" fill="#ffffff" stroke="none" transform="matrix(1 0 0 1 310 414 )" />
  </g>
</svg>