<?xml version="1.0" encoding="utf-8"?>
<svg version="1.1" xmlns:xlink="http://www.w3.org/1999/xlink" width="94px" height="24px" xmlns="http://www.w3.org/2000/svg">
  <g transform="matrix(1 0 0 1 -33 -35 )">
    <path d="M 34 37  A 1 1 0 0 1 35 36 L 125 36  A 1 1 0 0 1 126 37 L 126 57  A 1 1 0 0 1 125 58 L 35 58  A 1 1 0 0 1 34 57 L 34 37  Z " fill-rule="nonzero" fill="#000000" stroke="none" fill-opacity="0.427450980392157" />
    <path d="M 33.5 37  A 1.5 1.5 0 0 1 35 35.5 L 125 35.5  A 1.5 1.5 0 0 1 126.5 37 L 126.5 57  A 1.5 1.5 0 0 1 125 58.5 L 35 58.5  A 1.5 1.5 0 0 1 33.5 57 L 33.5 37  Z " stroke-width="1" stroke="#ffffff" fill="none" stroke-opacity="0.737254901960784" />
  </g>
</svg>