<?xml version="1.0" encoding="utf-8"?>
<svg version="1.1" xmlns:xlink="http://www.w3.org/1999/xlink" width="40px" height="40px" xmlns="http://www.w3.org/2000/svg">
  <g transform="matrix(1 0 0 1 -484 -384 )">
    <path d="M 40 20  C 40 31.0458333203125  31.0458333203125 40  20 40  C 8.9541666796875 40  0 31.0458333203125  0 20  C 0 8.9541666796875  8.9541666796875 0  20 0  C 31.0458333203125 0  40 8.9541666796875  40 20  Z M 24.8825 15.8758333203125  C 24.2075 12.0783333203125  20.4191666796875 9.1666666796875  15.8333333203125 9.1666666796875  C 10.7708333203125 9.1666666796875  6.666666640625 12.710833359375  6.6666666796875 17.0833333203125  C 6.6666666796875 19.761666640625  8.2116666796875 22.1258333203125  10.5691666796875 23.5583333203125  L 10 25.8333333203125  L 12.37 24.4108333203125  C 13.4391666796875 24.7883333203125  14.6075 25  15.8333333203125 25  C 16.154166640625 25  16.471666640625 24.985  16.7841666796875 24.9575  C 16.7096008353855 24.559233714585  16.6702820419798 24.1551703695858  16.6666666796875 23.75  C 16.6666666796875 19.655  20.2666666796875 16.2866666796875  24.8825 15.8758333203125  Z M 33.3333333203125 22.9166666796875  C 33.3333333203125 19.465  29.9758333203125 16.6666666796875  25.8333333203125 16.6666666796875  C 21.6908333203125 16.6666666796875  18.3333333203125 19.465  18.3333333203125 22.9166666796875  C 18.3333333203125 26.368333359375  21.6908333203125 29.1666666796875  25.8333333203125 29.1666666796875  C 26.846666640625 29.1666666796875  27.811666640625 28.9966666796875  28.6933333203125 28.6933333203125  L 30 30  L 30 28.1125  C 32.0091666796875 26.9916666796875  33.3333333203125 25.0833333203125  33.3333333203125 22.9166666796875  Z M 27.5 21.6666666796875  C 27.0397627048787 21.6666666796875  26.6666666601563 21.293570634965  26.6666666601563 20.8333333398437  C 26.6666666601563 20.3730960447225  27.0397627048787 20  27.5 20  C 27.9602372951213 20  28.3333333398438 20.3730960447225  28.3333333398438 20.8333333398437  C 28.3333333398438 21.293570634965  27.9602372951213 21.6666666796875  27.5 21.6666666796875  Z M 22.5 21.6666666796875  C 22.0397627048787 21.6666666796875  21.6666666601563 21.293570634965  21.6666666601563 20.8333333398437  C 21.6666666601563 20.3730960447225  22.0397627048787 20  22.5 20  C 22.9602372951213 20  23.3333333398437 20.3730960447225  23.3333333398437 20.8333333398437  C 23.3333333398437 21.293570634965  22.9602372951213 21.6666666796875  22.5 21.6666666796875  Z M 18.3333333203125 14.5833333203125  C 18.3335633919265 13.8929099751063  18.8933266164601 13.3333332508869  19.58375 13.3333332508869  C 20.2743361014682 13.3333332508869  20.8341667491131 13.8931638985318  20.8341667491131 14.58375  C 20.8339366080735 15.2745900248937  20.2741733835399 15.8341667491131  19.58375 15.8341667491131  C 18.8931638985318 15.8341667491131  18.3333332508869 15.2743361014682  18.3333332508869 14.58375  Z M 12.9166666796875 15.8333333203125  C 12.2262433376412 15.8331032594802  11.6666666102684 15.2733400405327  11.6666666102684 14.5829166601562  C 11.6666666102684 13.8923305694785  12.226497249166 13.3324999305809  12.9170833398438 13.3324999305809  C 13.6079233420463 13.3327300608323  14.1675000694191 13.8924932797798  14.1675000694191 14.5829166601562  C 14.1675000694191 15.273502750834  13.6076694305215 15.8333333897316  12.9170833398438 15.8333333897316  Z " fill-rule="nonzero" fill="#52d455" stroke="none" transform="matrix(1 0 0 1 484 384 )" />
  </g>
</svg>