<?xml version="1.0" encoding="utf-8"?>
<svg version="1.1" xmlns:xlink="http://www.w3.org/1999/xlink" width="50px" height="50px" xmlns="http://www.w3.org/2000/svg">
  <g transform="matrix(1 0 0 1 -149 -334 )">
    <path d="M 49.8975409836066 25.1588114754098  C 49.8924180327869 11.3934426229508  38.8217213114754 0.322745901639345  25.0563524590164 0.322745901639344  C 11.2909836065574 0.322745901639344  0.215163934426232 11.3985655737705  0.215163934426232 25.1639344262295  C 0.215163934426229 38.9241803278689  11.2909836065574 50  25.0563524590164 50  C 38.8217213114754 50  49.8975409836066 38.9241803278689  49.8975409836066 25.1588114754098  Z M 47.827868852459 25.1588114754098  C 47.8227459016393 37.7868852459016  37.6793032786885 47.9303278688525  25.0563524590164 47.9303278688525  C 12.4282786885246 47.9303278688525  2.28483606557377 37.7868852459016  2.28483606557377 25.1588114754098  C 2.28483606557377 12.530737704918  12.4282786885246 2.38729508196721  25.0563524590164 2.38729508196721  C 37.6844262295082 2.38729508196721  47.827868852459 12.530737704918  47.827868852459 25.1588114754098  Z " fill-rule="nonzero" fill="#555555" stroke="none" transform="matrix(1 0 0 1 149 334 )" />
  </g>
</svg>