<?xml version="1.0" encoding="utf-8"?>
<svg version="1.1" xmlns:xlink="http://www.w3.org/1999/xlink" width="40px" height="40px" xmlns="http://www.w3.org/2000/svg">
  <g transform="matrix(1 0 0 1 -693 -383 )">
    <path d="M 39.9680803189764 20  C 39.9680803189764 9.01668119282606  31.0802631518625 0.128864025712164  20.0969443446885 0.128864025712164  C 9.11362553751459 0.128864025712164  0.22580837040069 9.01668119282606  0.22580837040069 20  C 0.22580837040069 30.9833188071739  9.11362553751459 39.8711359742878  20.0969443446885 39.8711359742878  C 31.0802631518625 39.8711359742878  39.9680803189764 30.9833188071739  39.9680803189764 20  Z M 28.5512094577099 23.540675140765  C 28.5873387923167 24.0103565294644  28.515080123103 24.6968139646155  28.2621747420445 25.0219780148876  C 27.9731400263792 25.3832713997665  27.2144239220145 24.949719345674  26.6363545294947 23.7574511484059  C 26.4918371910674 24.2993912063189  26.1305438061885 25.1664953533148  25.2995690326102 26.2503755079517  C 26.6724838641015 26.5755395582238  27.0337772489805 27.9123250551083  26.6002251948879 28.6349118248662  C 26.2750611446158 29.1407225481724  25.5524743748579 29.574274602265  24.287947547187 29.574274602265  C 22.0117992340929 29.574274602265  21.0363071220873 28.9600758363275  20.5666257333879 28.526523782235  C 20.4943670641743 28.4181357784145  20.3498496869362 28.3820064438077  20.1692030139022 28.3820064438077  C 19.9885563408681 28.3820064438077  19.8801682982368 28.4181357784145  19.7717802944164 28.526523782235  C 19.3382282403238 28.9600758363275  18.3266067549006 29.574274602265  16.0504584806173 29.574274602265  C 14.7859316529464 29.574274602265  14.0272155485817 29.1407225481724  13.7381808329164 28.6349118248662  C 13.268499444217 27.9123250551083  13.6659221637028 26.5755395582238  15.0388369951941 26.2503755079517  C 14.2439915562226 25.1664953533148  13.8826981713437 24.2993912451297  13.7020514983096 23.7574511484059  C 13.1601114403966 24.9497193068631  12.3652660014251 25.4194006955625  12.0762312857598 25.0219780148876  C 11.8594552393081 24.6968139646155  11.7510672354876 24.0103565294644  11.7871965700944 23.540675140765  C 11.9317139085217 21.7342082163703  13.123982066979 20.2167760464517  13.8465688367369 19.4219306074802  C 13.7381808329164 19.2051545610285  13.5214047864647 17.868369064144  14.4246382680675 16.9651355825412  L 14.4246382680675 16.8928769133276  C 14.4246382680675 13.3160724379558  16.9536919234093 10.7508894480071  20.1692030139022 10.7508894480071  C 23.3485847697882 10.7508894480071  25.9137677597368 13.3160724379558  25.9137677597368 16.8928769133276  L 25.9137677597368 16.9651355825412  C 26.8170012025288 17.8683690253331  26.6002251948879 19.2051545610285  26.4918371910675 19.4219306074802  C 27.1782946262185 20.2167760464517  28.4066921192826 21.7342082551811  28.5512094577099 23.540675140765  Z " fill-rule="nonzero" fill="#30a5dd" stroke="none" transform="matrix(1 0 0 1 693 383 )" />
  </g>
</svg>