<?xml version="1.0" encoding="utf-8"?>
<svg version="1.1" xmlns:xlink="http://www.w3.org/1999/xlink" width="20px" height="19px" xmlns="http://www.w3.org/2000/svg">
  <g transform="matrix(1 0 0 1 -633 -393 )">
    <path d="M 15.1275 12.9782666666667  L 15.2875 12.9782666666667  C 13.2075 12.8161333333333  11.0475 12.654  8.9675 12.4918666666667  C 9.0475 12.4108  9.2075 12.4108  9.2875 12.3297333333333  C 11.2075 10.9516  13.1275 9.4924  15.1275 8.11426666666667  L 14.8075 8.11426666666667  C 12.7275 7.22253333333333  6.2475 7.38466666666666  4.4075 8.2764  C 6.8875 8.43853333333333  9.4475 8.60066666666667  11.9275 8.7628  C 11.8475 8.84386666666667  11.8475 9.006  11.7675 9.08706666666667  C 9.6875 10.4652  7.6875 11.7622666666667  5.6075 13.1404  L 5.6075 13.3025333333333  C 9.3675 13.7889333333333  13.4475 13.3836  16.8875 12.9782666666667  L 16.8875 13.1404  L 16.5675 13.1404  C 15.9275 13.6268  15.8475 13.3836  15.6875 14.5185333333333  C 16.0075 15.8966666666667  16.2475 17.3558666666667  16.5675 18.734  L 16.4075 18.8961333333333  L 15.6875 18.8961333333333  C 14.3275 17.7612  11.8475 16.0588  9.6875 15.8156  C 7.9275 16.8694666666667  6.1675 17.8422666666667  4.4075 18.8961333333333  C 4.1675 18.8150666666667  3.92749999999999 18.6529333333333  3.68749999999999 18.5718666666667  L 4.8875 12.0054666666667  L 0.0874999999999959 7.62786666666667  C 0.0874999999999959 7.5468  0.167499999999996 7.38466666666666  0.167499999999996 7.3036  L 0.167499999999996 7.22253333333333  L 0.167499999999996 7.14146666666666  C 2.2475 6.89826666666666  4.4075 6.574  6.4875 6.3308  C 7.6075 4.30413333333333  8.7275 2.27746666666666  9.92749999999999 0.250799999999996  L 10.2475 0.250799999999996  C 11.2075 2.35853333333333  12.1675 4.3852  13.1275 6.49293333333333  C 15.3675 6.73613333333333  17.6075 6.97933333333333  19.7675 7.14146666666666  C 19.8475 7.22253333333333  19.8475 7.38466666666666  19.9275 7.46573333333333  C 18.3275 9.006  16.7275 10.6273333333333  15.1275 12.1676  L 15.1275 12.9782666666667  Z " fill-rule="nonzero" fill="#ffffff" stroke="none" transform="matrix(1 0 0 1 633 393 )" />
  </g>
</svg>