<?xml version="1.0" encoding="utf-8"?>
<svg version="1.1" xmlns:xlink="http://www.w3.org/1999/xlink" width="20px" height="21px" xmlns="http://www.w3.org/2000/svg">
  <g transform="matrix(1 0 0 1 -265 -350 )">
    <path d="M 19.378731059322 7.090752221875  L 18.4187790677966 7.45252213125  C 18.735563220339 8.404026553125  18.9131543432203 9.419955759375  18.9131543432203 10.485442471875  C 18.9131543432203 15.60969025  14.9149542584746 19.782433628125  10 19.782433628125  C 5.08504574152542 19.782433628125  1.08684565677966 15.6047345125  1.08684565677966 10.480486734375  C 1.08684565677966 5.35623895625  5.08504574152542 1.183495578125  10 1.183495578125  L 10 0.1279203625  C 4.52347383474576 0.1279203625  0.064496779661017 4.77146018125  0.064496779661017 10.480486734375  C 0.064496779661017 16.1895132875  4.52347383474576 20.83305310625  10 20.83305310625  C 15.4765261652542 20.83305310625  19.935503220339 16.1895132875  19.935503220339 10.480486734375  C 19.935503220339 9.2911062125  19.7339133050847 8.15623895625  19.378731059322 7.090752221875  Z " fill-rule="nonzero" fill="#7f7f7f" stroke="none" transform="matrix(1 0 0 1 265 350 )" />
  </g>
</svg>