<?xml version="1.0" encoding="utf-8"?>
<svg version="1.1" xmlns:xlink="http://www.w3.org/1999/xlink" width="10px" height="9px" xmlns="http://www.w3.org/2000/svg">
  <g transform="matrix(1 0 0 1 -270 -356 )">
    <path d="M 0.0286557142857157 8.63831339338235  L 0.028655714285714 7.78375846323529  L 1.680573125 7.78375846323529  L 1.680573125 1.62946383088235  L 0.365781696428572 1.62946383088235  L 0.365781696428572 0.977303481617646  C 1.02654866071429 0.842373761029411  1.49852505952381 0.64747525367647  1.90307627976191 0.392608025735293  L 2.60429836309524 0.392608025735293  L 2.60429836309524 7.78375846323529  L 4.09439526785714 7.78375846323529  L 4.09439526785714 8.63831339338235  L 0.0286557142857157 8.63831339338235  Z M 7.56679309523809 8.78823529411764  C 6.14412136904762 8.78823529411764  5.2473662202381 7.35648101470588  5.24736619047619 4.49297242279412  C 5.24736619047619 1.6219677242647  6.15086386904762 0.242686124999999  7.56679309523809 0.242686091911763  C 8.97597979166667 0.242686091911763  9.87273494047619 1.63695990441176  9.87273494047619 4.49297242279412  C 9.87273494047619 7.36397712132353  8.96923726190476 8.78823529411764  7.56679309523809 8.78823529411764  Z M 7.56005056547619 7.97116086397059  C 8.40286556547619 7.96366475735294  8.96923726190476 6.92170745955882  8.96923726190476 4.49297242279412  C 8.96923726190476 2.08672567279412  8.4028655952381 1.07475273529412  7.56005056547619 1.07475273529412  C 6.71049303571429 1.07475273529412  6.14412136904762 2.08672567279412  6.14412136904762 4.49297242279412  C 6.14412136904762 6.92170745955882  6.71049303571428 7.97116086397059  7.56005056547619 7.97116086397059  Z " fill-rule="nonzero" fill="#7f7f7f" stroke="none" transform="matrix(1 0 0 1 270 356 )" />
  </g>
</svg>