<?xml version="1.0" encoding="utf-8"?>
<svg version="1.1" xmlns:xlink="http://www.w3.org/1999/xlink" width="20px" height="20px" xmlns="http://www.w3.org/2000/svg">
  <g transform="matrix(1 0 0 1 -64 -350 )">
    <path d="M 0.621268940677964 6.75309735416667  L 1.58122093220339 7.097640125  C 1.26443677966102 8.0038348125  1.08684565677966 8.9713864375  1.08684565677966 9.9861356875  C 1.08684565677966 14.8663716666667  5.08504574152543 18.8404129791667  10 18.8404129791667  C 14.9149542584746 18.8404129791667  18.9131543432203 14.8616519166667  18.9131543432203 9.9814159375  C 18.9131543432203 5.10117995833333  14.9149542584746 1.12713864583333  10 1.12713864583333  L 10 0.121828916666667  C 15.4765261652542 0.121828916666667  19.935503220339 4.54424779166667  19.935503220339 9.9814159375  C 19.935503220339 15.4185840833333  15.4765261652542 19.8410029583333  10 19.8410029583333  C 4.52347383474576 19.8410029583333  0.0644967796610163 15.4185840833333  0.0644967796610163 9.9814159375  C 0.0644967796610163 8.84867258333333  0.266086694915253 7.767846625  0.621268940677964 6.75309735416667  Z " fill-rule="nonzero" fill="#7f7f7f" stroke="none" transform="matrix(1 0 0 1 64 350 )" />
  </g>
</svg>