<?xml version="1.0" encoding="utf-8"?>
<svg version="1.1" xmlns:xlink="http://www.w3.org/1999/xlink" width="176px" height="42px" xmlns="http://www.w3.org/2000/svg">
  <defs>
    <filter x="520px" y="763px" width="176px" height="42px" filterUnits="userSpaceOnUse" id="filter3">
      <feOffset dx="0" dy="0" in="SourceAlpha" result="shadowOffsetInner" />
      <feGaussianBlur stdDeviation="2.5" in="shadowOffsetInner" result="shadowGaussian" />
      <feComposite in2="shadowGaussian" operator="atop" in="SourceAlpha" result="shadowComposite" />
      <feColorMatrix type="matrix" values="0 0 0 0 0.843137254901961  0 0 0 0 0.843137254901961  0 0 0 0 0.843137254901961  0 0 0 0.996078431372549 0  " in="shadowComposite" />
    </filter>
    <g id="widget4">
      <path d="M 525.5 784  A 15.5 15.5 0 0 1 541 768.5 L 675 768.5  A 15.5 15.5 0 0 1 690.5 784 A 15.5 15.5 0 0 1 675 799.5 L 541 799.5  A 15.5 15.5 0 0 1 525.5 784 Z " fill-rule="nonzero" fill="#ffffff" stroke="none" fill-opacity="0.56078431372549" />
      <path d="M 525.5 784  A 15.5 15.5 0 0 1 541 768.5 L 675 768.5  A 15.5 15.5 0 0 1 690.5 784 A 15.5 15.5 0 0 1 675 799.5 L 541 799.5  A 15.5 15.5 0 0 1 525.5 784 Z " stroke-width="1" stroke="#f2f2f2" fill="none" />
    </g>
  </defs>
  <g transform="matrix(1 0 0 1 -520 -763 )">
    <use xlink:href="#widget4" filter="url(#filter3)" />
    <use xlink:href="#widget4" />
  </g>
</svg>