<svg t="1586513205398" class="icon" viewBox="0 0 1024 1024" version="1.1" xmlns="http://www.w3.org/2000/svg" p-id="40448" width="128" height="128"><path d="M562.005333 85.333333a85.333333 85.333333 0 0 1 54.784 19.925334l5.546667 5.077333 205.994667 205.994667a85.333333 85.333333 0 0 1 24.661333 52.864l0.341333 7.466666V853.333333a85.333333 85.333333 0 0 1-78.933333 85.12L768 938.666667H256a85.333333 85.333333 0 0 1-85.12-78.933334L170.666667 853.333333V170.666667a85.333333 85.333333 0 0 1 78.933333-85.12L256 85.333333h306.005333z m-39.338666 64H256a21.333333 21.333333 0 0 0-20.992 17.493334L234.666667 170.666667v682.666666a21.333333 21.333333 0 0 0 17.493333 20.992L256 874.666667h512a21.333333 21.333333 0 0 0 20.992-17.493334L789.333333 853.333333V416H554.666667a32 32 0 0 1-31.701334-27.648L522.666667 384V149.333333zM682.666667 693.333333a32 32 0 0 1 4.352 63.701334L682.666667 757.333333H341.333333a32 32 0 0 1-4.352-63.701333L341.333333 693.333333h341.333334z m0-170.666666a32 32 0 0 1 4.352 63.701333L682.666667 586.666667H341.333333a32 32 0 0 1-4.352-63.701334L341.333333 522.666667h341.333334z m-256-170.666667a32 32 0 0 1 4.352 63.701333L426.666667 416H341.333333a32 32 0 0 1-4.352-63.701333L341.333333 352h85.333334z m160-186.837333V352h186.837333L586.666667 165.162667z" p-id="40449"></path></svg>