<svg t="1585652035673" class="icon" viewBox="0 0 1024 1024" version="1.1" xmlns="http://www.w3.org/2000/svg" p-id="53741" width="128" height="128"><path d="M887.4496 962.14016H514.90816c-21.1968 0-38.44096-16.24064-38.44096-36.20864A223.36512 223.36512 0 0 1 489.27744 850.944a218.50112 218.50112 0 0 1 91.98592-113.3568q1.98656-1.21856 4.01408-2.39616-3.61472-4.29056-6.90176-8.8576A139.264 139.264 0 0 1 551.936 644.62848c0-38.144 15.36-74.06592 43.23328-101.15072 28.18048-27.38176 65.75104-42.45504 105.7792-42.45504S778.51648 516.096 806.7072 543.488c27.8528 27.07456 43.2128 62.99648 43.2128 101.14048a139.20256 139.20256 0 0 1-26.80832 82.18624q-3.4816 4.79232-7.3216 9.27744A226.1504 226.1504 0 0 1 875.52 786.80064 219.55584 219.55584 0 0 1 912.52736 850.944a215.98208 215.98208 0 0 1 13.3632 74.99776c0 19.95776-17.24416 36.1984-38.44096 36.1984z m-44.82048-46.99136h32.67584a171.44832 171.44832 0 0 0-10.24-48.896 173.52704 173.52704 0 0 0-29.24544-50.69824A177.152 177.152 0 0 0 763.904 763.65824a23.77728 23.77728 0 0 1-15.2576-18.76992 22.8352 22.8352 0 0 1 9.85088-21.7088A97.95584 97.95584 0 0 0 781.52704 700.416a95.03744 95.03744 0 0 0-11.03872-124.37504 100.28032 100.28032 0 0 0-139.13088 0 95.03744 95.03744 0 0 0-11.264 124.04736 97.90464 97.90464 0 0 0 22.59968 22.528A22.81472 22.81472 0 0 1 652.288 744.448a23.808 23.808 0 0 1-15.36 18.65728 169.29792 169.29792 0 0 0-71.43424 51.78368 172.24704 172.24704 0 0 0-28.48768 50.8928 178.176 178.176 0 0 0-9.94304 49.36704zM377.14944 162.01728h225.28a25.6 25.6 0 0 0 0-51.2h-225.28a25.6 25.6 0 0 0 0 51.2zM299.83744 208.65024a25.6 25.6 0 0 0 25.6-25.6V89.92768a25.6 25.6 0 1 0-51.2 0v93.1328a25.6 25.6 0 0 0 25.6 25.58976zM688.95744 208.65024a25.6 25.6 0 0 0 25.6-25.6V89.92768a25.6 25.6 0 1 0-51.2 0v93.1328a25.6 25.6 0 0 0 25.6 25.58976zM528.71168 384.57344H222.80192c-17.32608 0-31.36512-11.45856-31.36512-25.6s14.03904-25.6 31.36512-25.6h305.90976c17.32608 0 31.36512 11.45856 31.36512 25.6s-14.03904 25.6-31.36512 25.6zM370.688 543.42656H217.088a25.6 25.6 0 1 1 0-51.2h153.6a25.6 25.6 0 0 1 0 51.2z" fill="#bfbfbf" p-id="53742"></path><path d="M367.99488 883.52768H223.03744a76.88192 76.88192 0 0 1-76.8-76.8v-376.832h-0.0512v-126.976h0.0512v-64.1024a76.88192 76.88192 0 0 1 76.8-76.8 25.6 25.6 0 0 0 0-51.2 128.14336 128.14336 0 0 0-128 128v567.9104a128.14336 128.14336 0 0 0 128 128h144.95744a25.6 25.6 0 0 0 0-51.2zM765.75744 110.81728a25.6 25.6 0 0 0 0 51.2 76.88192 76.88192 0 0 1 76.8 76.8v109.45536h-0.12288v51.2h0.12288v36.21888a25.6 25.6 0 0 0 51.2 0V238.81728a128.14336 128.14336 0 0 0-128-128z" fill="#bfbfbf" p-id="53743"></path></svg>