<svg t="1585652151560" class="icon" viewBox="0 0 1024 1024" version="1.1" xmlns="http://www.w3.org/2000/svg" p-id="61548" width="128" height="128"><path d="M512 0A512 512 0 1 0 1024 512 512.588506 512.588506 0 0 0 512 0z m0 988.689655A476.689655 476.689655 0 1 1 988.689655 512 477.278161 477.278161 0 0 1 512 988.689655z" p-id="61549" fill="#bfbfbf"></path><path d="M512 131.825287a380.174713 380.174713 0 1 0 380.174713 380.174713 380.645517 380.645517 0 0 0-380.174713-380.174713z m175.13931 677.134713a23.54023 23.54023 0 0 0-11.770115-11.770115c-66.971954-29.425287-19.538391-48.963678-109.226666-54.495632a230.458851 230.458851 0 1 0-107.46115 0c-89.688276 5.649655-42.254713 25.070345-109.226666 54.495632a23.54023 23.54023 0 0 0-11.770115 11.770115 344.864368 344.864368 0 1 1 350.27862 0z" p-id="61550" fill="#bfbfbf"></path></svg>