<?xml version="1.0" encoding="utf-8"?>
<svg version="1.1" xmlns:xlink="http://www.w3.org/1999/xlink" width="11px" height="11px" xmlns="http://www.w3.org/2000/svg">
  <g transform="matrix(1 0 0 1 -49 -409 )">
    <path d="M 10.9625 4.6  C 10.9625 4.4625  10.85 4.35  10.7125 4.35  L 6.7125 4.35  L 6.7125 0.35  C 6.7125 0.2125  6.6 0.0999999999999996  6.4625 0.0999999999999996  L 5.4625 0.0999999999999996  C 5.325 0.0999999999999996  5.2125 0.2125  5.2125 0.35  L 5.2125 4.35  L 1.2125 4.35  C 1.075 4.35  0.962499999999997 4.4625  0.962499999999997 4.6  L 0.962499999999997 5.6  C 0.962499999999997 5.7375  1.075 5.85  1.2125 5.85  L 5.2125 5.85  L 5.2125 9.85  C 5.2125 9.9875  5.325 10.1  5.4625 10.1  L 6.4625 10.1  C 6.6 10.1  6.7125 9.9875  6.7125 9.85  L 6.7125 5.85  L 10.7125 5.85  C 10.85 5.85  10.9625 5.7375  10.9625 5.6  L 10.9625 4.6  Z " fill-rule="nonzero" fill="#000000" stroke="none" transform="matrix(1 0 0 1 49 409 )" />
  </g>
</svg>