<?xml version="1.0" encoding="utf-8"?>
<svg version="1.1" xmlns:xlink="http://www.w3.org/1999/xlink" width="23px" height="21px" xmlns="http://www.w3.org/2000/svg">
  <g transform="matrix(1 0 0 1 -37 -399 )">
    <path d="M 1.525 7.57499999999999  C 1.5375 4.5125  4.0375 2.0125  7.1 2.0125  C 8.55 2.0125  9.925 2.575  10.975 3.5875  L 11.5 4.1  L 12.025 3.5875  C 13.075 2.575  14.45 2.0125  15.9 2.0125  C 18.9625 2.0125  21.4625 4.5125  21.4625 7.575  C 21.4625 8.025  21.375 8.4875  21.2125 8.975  C 21.2125 8.975  21.1375 9.2  21.1375 9.325  C 21.1375 9.7375  21.475 10.075  21.8875 10.075  C 22.25 10.075  22.5125 9.7125  22.625 9.4625  C 22.725 9.2375  22.975 8.2  22.975 7.575  C 22.975 3.675  19.8125 0.512499999999999  15.9125 0.512499999999999  C 14.3 0.512499999999999  12.7625 1.05  11.5125 2.05  C 10.2625 1.05  8.72500000000001 0.512499999999999  7.1125 0.512499999999999  C 3.21250000000001 0.512499999999999  0.0500000000000051 3.675  0.0500000000000051 7.575  C 0.0500000000000051 12.55  8.18750000000001 18.325  10.6625 19.9625  C 10.675 19.975  10.7 19.9875  10.7 19.9875  C 10.7 19.9875  10.95 20.1  11.0875 20.1  C 11.5 20.1  11.8375 19.7625  11.8375 19.35  C 11.8375 19.0875  11.7 18.85  11.4875 18.725  C 8.375 16.725  1.525 11.525  1.525 7.57499999999999  Z " fill-rule="nonzero" fill="#000000" stroke="none" transform="matrix(1 0 0 1 37 399 )" />
  </g>
</svg>