<?xml version="1.0" encoding="utf-8"?>
<svg version="1.1" xmlns:xlink="http://www.w3.org/1999/xlink" width="20px" height="18px" xmlns="http://www.w3.org/2000/svg">
  <g transform="matrix(1 0 0 1 -570 -799 )">
    <path d="M 16.5533394403872 17.8514130301339  L 1.96523019276495 17.8514130301339  C 1.14821889860734 17.8514130301339  0.483517408288043 17.1962072544643  0.483517408288043 16.3908461425781  L 0.483517387058424 2.09122700892857  C 0.483517387058424 1.28586589704241  1.14821889860734 0.630681549944196  1.96523017153533 0.630681549944196  L 10.8133615828804 0.630681549944196  C 11.0911297766644 0.630681549944196  11.3171069972826 0.853387688337053  11.3171069972826 1.12714494977679  C 11.3171069972826 1.4009450265067  11.0911080587636 1.62369400111607  10.8133615828804 1.62369400111607  L 1.96523017153533 1.62369400111607  C 1.70369011124321 1.62369400111607  1.49092132302989 1.83342323521205  1.49092132302989 2.09122700892857  L 1.49092132302989 16.3908461425781  C 1.49092132302989 16.6486713448661  1.70369011124321 16.8584005789621  1.96523017153533 16.8584005789621  L 16.553361158288 16.8584005789621  C 16.8148360436481 16.8584005789621  17.0275613960598 16.6486713448661  17.0275613960598 16.3908461425781  L 17.0275613960598 10.0701672781808  C 17.0275613960598 9.79641003766741  17.2535603345788 9.57368247070313  17.531306810462 9.57368247070313  C 17.8090532863451 9.57368247070313  18.0350522248641 9.79638860909598  18.0350522248641 10.0701672781808  L 18.0350522248641 16.3908461425781  C 18.0350522248641 17.1962072544643  17.3703507133152 17.8514130301339  16.5533394403872 17.8514130301339  Z M 7.91654298997962 12.122190297154  C 7.86414376698369 12.349864515904  7.66232407014266 12.5087996023996  7.42576706861413 12.5087996023996  C 7.38759729534647 12.5087996023996  7.35005753226902 12.5046880998884  7.31412536090353 12.4965935825893  C 7.18260582965353 12.4671492606027  7.07083379330842 12.3891592843192  6.99907810377038 12.2768639857701  C 6.92732241423234 12.1646329310826  6.90422936480978 12.0316730817522  6.93403524116848 11.9024392717634  C 6.93848874830163 11.8835306710379  7.41162446925951 9.92288140345982  8.94564962635869 7.93439388950893  C 9.82933309273098 6.7889133858817  10.887897991678 5.86296974748884  12.0919512143342 5.18232407226563  C 13.5952580672554 4.33252880859375  15.3342094938859 3.8630899344308  17.2605121433424 3.78707004743304  L 17.7893057914402 3.76621276506696  L 14.9464723802649 0.998467905970982  C 14.850646038553 0.905209716796875  14.7973995414402 0.780794049944197  14.796552288553 0.648134012276786  C 14.7957050356658 0.515516789899554  14.8473004840353 0.39052294921875  14.9418233695652 0.296215471540179  C 15.0372586616848 0.201030008370536  15.1645419284986 0.148586990792411  15.3002108101223 0.148586990792411  C 15.4335334578804 0.148586990792411  15.5591873938519 0.199466789899554  15.6540361328125 0.2918255859375  L 19.3673445991848 3.90692454659598  C 19.5619300696332 4.09611769670759  19.5666659731658 4.40829176199777  19.3779678371264 4.60294549386161  L 15.5271004585598 8.57951365094866  C 15.4309482634171 8.67863929268973  15.3015142663043 8.733309375  15.1627387907609 8.733309375  C 15.0326748046875 8.733309375  14.9089977921196 8.68444250139509  14.8144966457201 8.59572409319197  C 14.6139152513587 8.40685214146205  14.6065506751019 8.09195851004464  14.7983554050611 7.89400699637277  L 17.8374687924592 4.75537071010045  L 17.2684198157269 4.7788405203683  C 14.1286789869226 4.90826706194196  11.528963336447 6.17931955915178  9.75032143766984 8.4545840750558  C 8.38802768342391 10.1972596749442  7.96079560122283 11.9303418038504  7.91654298997962 12.122190297154  Z " fill-rule="nonzero" fill="#000000" stroke="none" transform="matrix(1 0 0 1 570 799 )" />
  </g>
</svg>