<?xml version="1.0" encoding="utf-8"?>
<svg version="1.1" xmlns:xlink="http://www.w3.org/1999/xlink" width="26px" height="25px" xmlns="http://www.w3.org/2000/svg">
  <g transform="matrix(1 0 0 1 -120 -397 )">
    <path d="M 20.284130859375 24.0597412109375  C 19.8873042926916 24.3787535261972  19.3923915079234 24.5507654757726  18.883251953125 24.546630859375  C 18.5316162109375 24.546630859375  18.136376953125 24.445751953125  17.7699951171875 24.2625  L 12.5382568359375 21.645751953125  L 7.27412109375 24.258251953125  C 6.9407470703125 24.4357421875  6.559130859375 24.52900390625  6.1699951171875 24.52900390625  C 5.66434236063038 24.5309725563333  5.17156660635814 24.3696338577982  4.764990234375 24.068994140625  C 4.0282470703125 23.516259765625  3.650732421875 22.558984375  3.825 21.6871337890625  L 4.9016357421875 16.1018798828125  L 0.775 12.25576171875  C 0.137598744876144 11.6099542129595  -0.106970834431599 10.6732176407927  0.1333740234375 9.7982421875  L 0.1416259765625 9.769873046875  C 0.4416259765625 8.870751953125  1.1858642578125 8.2407470703125  2.0882568359375 8.119873046875  L 7.821630859375 7.077392578125  L 10.3949951171875 1.8508544921875  C 10.8083740234375 1.02333984375  11.6491455078125 0.4916015625  12.5382568359375 0.4916015625  C 13.4657470703125 0.4916015625  14.3282470703125 1.043359375  14.6898681640625 1.865869140625  L 17.2550048828125 7.075830078125  L 22.9892578125 8.078369140625  C 23.8992038851092 8.21021613998452  24.6471474358296 8.86363462604967  24.9 9.7476318359375  C 25.1831247241791 10.6164459043834  24.9519087746263 11.5706533627776  24.302490234375 12.2135009765625  L 24.28837890625 12.22763671875  L 20.173388671875 16.10263671875  L 21.21337890625 21.6978759765625  C 21.380859375 22.592626953125  21.025 23.4965087890625  20.284130859375 24.0597412109375  Z M 12.540234375 19.7601318359375  L 18.0985107421875 22.53974609375  C 18.2617431640625 22.622021484375  18.4498779296875 22.6737548828125  18.57861328125 22.6737548828125  C 18.7767578125 22.6737548828125  18.9607421875 22.612744140625  19.0958740234375 22.5  L 19.1210205078125 22.479248046875  C 19.436865234375 22.2422607421875  19.590869140625 21.865625  19.5217529296875 21.496875  L 18.4032470703125 15.47138671875  L 22.8273681640625 11.305126953125  C 23.0989990234375 11.029736328125  23.1918701171875 10.6353759765625  23.07138671875 10.27275390625  L 23.0592529296875 10.234619140625  C 22.9618195937183 9.88337298585768  22.6643709285331 9.62403340024554  22.303125 9.5753662109375  L 22.277880859375 9.57138671875  L 16.15625 8.501220703125  L 13.401123046875 2.905029296875  C 13.2673828125 2.5924072265625  12.9043701171875 2.36552734375  12.5378662109375 2.36552734375  C 12.1777587890625 2.36552734375  11.833251953125 2.591015625  11.658740234375 2.93916015625  L 8.921240234375 8.4987548828125  L 2.7673828125 9.6166259765625  C 2.393603515625 9.6635009765625  2.1032470703125 9.9117431640625  1.9691162109375 10.298876953125  C 1.873876953125 10.65263671875  1.9867431640625 11.0788818359375  2.2467529296875 11.34462890625  L 6.6760009765625 15.4719970703125  L 5.5136474609375 21.500634765625  C 5.44375 21.849267578125  5.6088623046875 22.25048828125  5.9142578125 22.479638671875  C 6.0673828125 22.5947509765625  6.2657470703125 22.658251953125  6.4737548828125 22.658251953125  C 6.634130859375 22.658251953125  6.7878662109375 22.6208740234375  6.9203857421875 22.549609375  L 6.939501953125 22.53837890625  L 12.5402587890625 19.7601318359375  Z " fill-rule="nonzero" fill="#2c2c2c" stroke="none" transform="matrix(1 0 0 1 120 397 )" />
  </g>
</svg>