<?xml version="1.0" encoding="utf-8"?>
<svg version="1.1" xmlns:xlink="http://www.w3.org/1999/xlink" width="8px" height="4px" xmlns="http://www.w3.org/2000/svg">
  <g transform="matrix(1 0 0 1 -466 -807 )">
    <path d="M 7.95823863636364 0.5434375  C 7.95823863636364 0.808125  7.76136363636364 1.0246875  7.52073863636364 1.0246875  L 0.838920454545454 1.0246875  C 0.598295454545453 1.0246875  0.401420454545454 0.808125  0.401420454545454 0.5434375  C 0.401420454545454 0.278749999999999  0.598295454545453 0.0621875000000003  0.838920454545454 0.0621875000000003  L 7.52073863636364 0.0621875000000003  C 7.76136363636364 0.0621875000000003  7.95823863636364 0.278749999999999  7.95823863636364 0.5434375  Z M 4.77642045454546 3.2778125  C 4.77642045454546 3.5425  4.57954545454545 3.7590625  4.33892045454545 3.7590625  L 0.838920454545454 3.7590625  C 0.598295454545453 3.7590625  0.401420454545454 3.5425  0.401420454545454 3.2778125  C 0.401420454545454 3.013125  0.598295454545453 2.7965625  0.838920454545454 2.7965625  L 4.33892045454545 2.7965625  C 4.57954545454545 2.7965625  4.77642045454546 3.013125  4.77642045454546 3.2778125  Z " fill-rule="nonzero" fill="#212121" stroke="none" transform="matrix(1 0 0 1 466 807 )" />
  </g>
</svg>