<?xml version="1.0" encoding="utf-8"?>
<svg version="1.1" xmlns:xlink="http://www.w3.org/1999/xlink" width="18px" height="16px" xmlns="http://www.w3.org/2000/svg">
  <g transform="matrix(1 0 0 1 -460 -800 )">
    <path d="M 17.5189453125 4.90803571428571  C 17.5189453125 4.14970238095238  16.9119140625 3.53303571428571  16.1654296875 3.53303571428571  L 12.89853515625 3.53303571428571  L 12.89853515625 2.12261904761905  C 12.89853515625 1.36428571428571  12.29150390625 0.747619047619048  11.54501953125 0.747619047619048  L 1.86533203125 0.747619047619048  C 1.11884765625 0.747619047619048  0.51181640625 1.36428571428571  0.51181640625 2.12261904761905  L 0.51181640625 9.03928571428571  C 0.51181640625 9.79761904761905  1.11884765625 10.4142857142857  1.86533203125 10.4142857142857  L 3.2044921875 10.4142857142857  L 3.2044921875 12.3247023809524  C 3.2044921875 13.085119047619  3.80947265625 13.6997023809524  4.5580078125 13.6997023809524  L 7.52958984375 13.6997023809524  C 7.63212890625 13.6997023809524  7.7326171875 13.7392857142857  7.80849609375 13.810119047619  L 9.69521484375 15.5872023809524  C 10.041796875 15.9267857142857  10.58935546875 15.9309523809524  10.94208984375 15.5955357142857  L 12.896484375 13.8059523809524  C 12.97236328125 13.7372023809524  13.06875 13.6997023809524  13.1712890625 13.6997023809524  L 16.1654296875 13.6997023809524  C 16.91396484375 13.6997023809524  17.5189453125 13.085119047619  17.5189453125 12.3247023809524  L 17.5189453125 4.90803571428571  Z M 3.2044921875 9.49761904761905  L 1.86533203125 9.49761904761905  C 1.6171875 9.49761904761905  1.41416015625 9.29136904761905  1.41416015625 9.03928571428571  L 1.41416015625 2.12261904761905  C 1.41416015625 1.87053571428571  1.6171875 1.66428571428572  1.86533203125 1.66428571428572  L 11.54501953125 1.66428571428572  C 11.7931640625 1.66428571428572  11.99619140625 1.87053571428571  11.99619140625 2.12261904761905  L 11.99619140625 3.53303571428571  L 4.5580078125 3.53303571428571  C 3.80947265625 3.53303571428571  3.2044921875 4.14761904761905  3.2044921875 4.90803571428571  L 3.2044921875 9.49761904761905  Z M 16.6166015625 4.90803571428571  L 16.6166015625 12.3247023809524  C 16.6166015625 12.5767857142857  16.41357421875 12.7830357142857  16.1654296875 12.7830357142857  L 12.98056640625 12.7830357142857  C 12.77138671875 12.7830357142857  12.57041015625 12.8642857142857  12.41865234375 13.010119047619  L 10.7513671875 14.603869047619  C 10.51142578125 14.8330357142857  10.13818359375 14.828869047619  9.90234375 14.597619047619  L 8.29658203125 13.0184523809524  C 8.1427734375 12.8684523809524  7.93974609375 12.7830357142857  7.72646484375 12.7830357142857  L 4.5580078125 12.7830357142857  C 4.30986328125 12.7830357142857  4.1068359375 12.5767857142857  4.1068359375 12.3247023809524  L 4.1068359375 4.90803571428571  C 4.1068359375 4.65595238095238  4.30986328125 4.44970238095238  4.5580078125 4.44970238095238  L 16.1654296875 4.44970238095238  C 16.41357421875 4.44970238095238  16.6166015625 4.65595238095238  16.6166015625 4.90803571428571  Z " fill-rule="nonzero" fill="#212121" stroke="none" transform="matrix(1 0 0 1 460 800 )" />
  </g>
</svg>