<?xml version="1.0" encoding="utf-8"?>
<svg version="1.1" xmlns:xlink="http://www.w3.org/1999/xlink" width="16px" height="7px" xmlns="http://www.w3.org/2000/svg">
  <g transform="matrix(1 0 0 1 -734 -749 )">
    <path d="M 4.0625 0.875  C 4.0625 0.40625  3.6875 0.125  3.3125 0.125  L 1.4375 0.125  C 1.0625 0.125  0.687499999999999 0.40625  0.687499999999999 0.875  C 0.687499999999999 1.34375  0.96875 1.625  1.4375 1.625  L 3.3125 1.625  C 3.6875 1.625  4.0625 1.34375  4.0625 0.875  Z M 8.9375 0.125  L 7.0625 0.125  C 6.6875 0.125  6.3125 0.40625  6.3125 0.875  C 6.3125 1.34375  6.59375 1.625  7.0625 1.625  L 8.9375 1.625  C 9.3125 1.625  9.6875 1.34375  9.6875 0.875  C 9.6875 0.40625  9.40625 0.125  8.9375 0.125  Z M 11.9375 0.875  C 11.9375 1.34375  12.3125 1.625  12.6875 1.625  L 14.5625 1.625  C 14.9375 1.625  15.3125 1.34375  15.3125 0.875  C 15.3125 0.40625  15.03125 0.125  14.5625 0.125  L 12.6875 0.125  C 12.3125 0.125  11.9375 0.40625  11.9375 0.875  Z M 4.0625 5.5625  C 4.0625 5.09375  3.6875 4.8125  3.3125 4.8125  L 1.4375 4.8125  C 1.0625 4.8125  0.687499999999999 5.09375  0.687499999999999 5.5625  C 0.687499999999999 6.03125  0.96875 6.3125  1.4375 6.3125  L 3.3125 6.3125  C 3.6875 6.3125  4.0625 6.03125  4.0625 5.5625  Z " fill-rule="nonzero" fill="#ffffff" stroke="none" transform="matrix(1 0 0 1 734 749 )" />
  </g>
</svg>