<?xml version="1.0" encoding="utf-8"?>
<svg version="1.1" xmlns:xlink="http://www.w3.org/1999/xlink" width="26px" height="24px" xmlns="http://www.w3.org/2000/svg">
  <g transform="matrix(1 0 0 1 -729 -736 )">
    <path d="M 25.09375 7.3125  C 25 4.78125  23.03125 2.8125  20.5 2.8125  L 11.78125 2.8125  C 11.5 1.21875  10 0  8.3125 0  L 4.46875 0  C 2.5 0  0.90625 1.59375  1 3.5625  L 1 19.5  C 0.90625 22.03125  2.96875 24  5.40625 24  L 13.84375 24  C 14.21875 24  14.59375 23.71875  14.59375 23.25  C 14.59375 22.78125  14.3125 22.5  13.84375 22.5  L 5.5 22.5  C 3.8125 22.5  2.40625 21.09375  2.40625 19.40625  L 2.40625 9.84375  C 2.5 9.9375  2.59375 9.9375  2.6875 10  L 23.3125 10  C 23.40625 9.9375  23.5 9.9375  23.59375 9.84375  L 23.59375 13.875  C 23.59375 14.25  23.875 14.625  24.34375 14.625  C 24.8125 14.625  25.09375 14.34375  25.09375 13.875  L 25.09375 7.3125  Z M 23.59375 8.53125  C 23.5 8.53125  23.40625 8.4375  23.3125 8.4375  L 2.6875 8.4375  C 2.59375 8.4375  2.5 8.4375  2.40625 8.53125  L 2.40625 3.46875  C 2.40625 2.34375  3.34375 1.40625  4.46875 1.40625  L 8.3125 1.40625  C 9.4375 1.40625  10.375 2.34375  10.375 3.46875  C 10.375 3.84375  10.65625 4.21875  11.125 4.21875  L 20.5 4.21875  C 22.1875 4.21875  23.59375 5.625  23.59375 7.3125  L 23.59375 8.53125  Z " fill-rule="nonzero" fill="#ffffff" stroke="none" transform="matrix(1 0 0 1 729 736 )" />
  </g>
</svg>