<?xml version="1.0" encoding="utf-8"?>
<svg version="1.1" xmlns:xlink="http://www.w3.org/1999/xlink" width="6px" height="5px" xmlns="http://www.w3.org/2000/svg">
  <g transform="matrix(1 0 0 1 -214 -399 )">
    <path d="M 3.216375 4.346125  C 4.64975 4.32175  5.521125 3.088125  5.520875 2.101625  C 5.5245 1.225  5.310125 0.673999999999999  4.71625 0.10425  C 4.769 0.29325  4.797375 0.489874999999999  4.80025 0.688124999999999  C 4.854875 1.76825  4.11725 2.693625  3.15275 2.75475  C 2.188375 2.815875  1.362125 1.99  1.3075 0.909749999999999  C 1.30387497317262 0.835919469778339  1.30387497317262 0.761955530221659  1.3075 0.688124999999999  C 1.307875 0.529374999999999  1.32475 0.371499999999999  1.358 0.217124999999999  C 0.829625000000002 0.782124999999999  0.657625000000003 1.282875  0.659875000000003 2.100875  C 0.869625000000003 3.488125  1.782375 4.3215  3.21575 4.346  Z " fill-rule="nonzero" fill="#2c2c2c" stroke="none" transform="matrix(1 0 0 1 214 399 )" />
  </g>
</svg>