<?xml version="1.0" encoding="utf-8"?>
<svg version="1.1" xmlns:xlink="http://www.w3.org/1999/xlink" width="20px" height="19px" xmlns="http://www.w3.org/2000/svg">
  <g>
    <path d="M 15.9166666601562 18.5543209940683  C 15.5833333203125 18.7185185185185  15.25 18.8827160622106  14.8333333398438 18.8827160429687  C 14.5833333398438 18.8827160429687  14.25 18.8006172711227  14 18.6364197466725  L 10 16.6660493763021  L 6 18.6364197466725  C 5.75 18.8006172711227  5.41666666015625 18.8827160429687  5.16666666015625 18.8827160429687  C 4.75 18.8827160429687  4.41666666015625 18.8006172711227  4.08333333984375 18.5543209940683  C 3.5 18.1438271733218  3.25 17.4049382844329  3.33333333984375 16.7481481481481  L 4.16666666015625 12.5611111111111  L 0.999999999999999 9.68765432740162  C 0.499999999999999 9.19506173480902  0.333333339843749 8.45617284592014  0.499999999999999 7.79938270963541  C 0.749999999999999 7.14259259259259  1.33333333984375 6.65  2 6.56790122815393  L 6.41666666015625 5.74691358666087  L 8.33333333984375 1.72407407407407  C 8.6666666796875 1.06728395703125  9.33333333984375 0.656790117042824  10 0.656790117042824  C 10.75 0.656790117042824  11.3333333398437 1.06728393778935  11.6666666601562 1.72407407407407  L 13.6666666601563 5.66481481481481  L 18.0833333398438 6.4037037037037  C 18.75 6.48580247554977  19.3333333398438 6.97839506814236  19.5833333398438 7.63518518518518  C 19.8333333398437 8.29197530222801  19.5833333398438 9.0308641911169  19.0833333398437 9.52345678370949  L 15.8333333398438 12.479012339265  L 16.6666666601562 16.7481481481482  C 16.8333333203125 17.404938265191  16.5 18.1438271540799  15.9166666601562 18.5543209940683  Z M 5.41666666015625 17.7333333333333  L 10 15.5166666666667  L 14.5 17.7333333333333  C 14.6666666601562 17.8154321051794  14.75 17.8154321051794  14.9166666601563 17.8154321051794  C 15.0833333203125 17.8154321051794  15.25 17.7333333333333  15.3333333398438 17.6512345614873  C 15.5833333398438 17.487037037037  15.75 17.1586419688947  15.6666666601563 16.9123456725984  L 14.75 12.1506172903646  L 18.3333333398438 8.86666666666667  C 18.5833333398438 8.62037037037037  18.6666666796875 8.37407407407408  18.5 8.04567900593171  C 18.4166666601563 7.79938270963542  18.1666666601563 7.55308641333912  17.9166666601563 7.55308641333912  L 13 6.73209877184606  L 10.75 2.29876543851273  C 10.6666666601563 2.05246914221644  10.3333333398438 1.8882716177662  10.0833333398438 1.88827159852431  C 9.83333333984375 1.88827159852431  9.5 2.05246912297454  9.33333333984375 2.3808641911169  L 7.08333333984375 6.56790122815393  L 2.08333333984375 7.47098766073495  C 1.75 7.47098766073495  1.58333333984375 7.71728395703125  1.41666666015625 8.04567900593171  C 1.3333333203125 8.29197530222801  1.41666666015625 8.70246912297454  1.66666666015625 8.86666666666667  L 5.25 12.1506172903646  L 4.33333333984375 16.9123456725984  C 4.25 17.1586419688947  4.4166666796875 17.487037037037  4.66666666015625 17.6512345614873  C 4.75 17.7333333333333  4.91666666015625 17.8154320859375  5.08333333984375 17.8154321051794  C 5.25000001953125 17.8154321244213  5.33333333984375 17.8154321051794  5.41666666015625 17.7333333333333  Z " fill-rule="nonzero" fill="#2c2c2c" stroke="none" />
  </g>
</svg>