<?xml version="1.0" encoding="utf-8"?>
<svg version="1.1" xmlns:xlink="http://www.w3.org/1999/xlink" width="9px" height="9px" xmlns="http://www.w3.org/2000/svg">
  <g transform="matrix(1 0 0 1 -745 -751 )">
    <path d="M 9 4.875  C 9 4.40625  8.625 4.3125  8.25 4.3125  L 5.625 4.3125  L 5.625 1.6875  C 5.625 1.3125  5.34375 0.9375  4.875 0.9375  C 4.40625 0.9375  4.125 1.21875  4.125 1.6875  L 4.125 4.3125  L 1.6875 4.3125  C 1.3125 4.3125  0.9375 4.59375  0.9375 5.0625  C 0.9375 5.53125  1.21875 5.8125  1.6875 5.8125  L 4.3125 5.8125  L 4.3125 8.25  C 4.3125 8.625  4.59375 9  5.0625 9  C 5.53125 9  5.8125 8.71875  5.8125 8.25  L 5.8125 5.625  L 8.25 5.625  C 8.625 5.625  9 5.34375  9 4.875  Z " fill-rule="nonzero" fill="#ffffff" stroke="none" transform="matrix(1 0 0 1 745 751 )" />
  </g>
</svg>