<?xml version="1.0" encoding="utf-8"?>
<svg version="1.1" xmlns:xlink="http://www.w3.org/1999/xlink" width="18px" height="25px" xmlns="http://www.w3.org/2000/svg">
  <g transform="matrix(1 0 0 1 -205 -397 )">
    <path d="M 12.07125 3.7435  L 12.1095 3.7435  C 12.920375 3.72  13.5625 3.05025  13.5515 2.239125  C 13.5515 1.43225  12.897375 0.778125  12.0905 0.778125  C 11.2835 0.778125  10.629375 1.43225  10.629375 2.239125  C 10.6185 3.05025  11.260375 3.72  12.07125 3.7435  Z M 4.24925 20.980875  C 3.921375 20.302875  2.581875 10.053625  2.581875 10.053625  L 0.169625 19.352375  L 4.24925 20.980875  Z M 1.359125 18.750375  L 2.27325 15.22625  C 2.496125 16.801125  2.714375 18.256625  2.9035 19.367  L 1.359125 18.750375  Z M 17.022 20.714125  L 7.87325 21.6645  L 16.760625 24.716  L 17.022 20.714125  Z M 15.946875 21.831375  L 15.848 23.3455  L 12.4855 22.190875  L 15.946875 21.831375  Z " fill-rule="nonzero" fill="#2c2c2c" stroke="none" transform="matrix(1 0 0 1 205 397 )" />
  </g>
</svg>