<?xml version="1.0" encoding="utf-8"?>
<svg version="1.1" xmlns:xlink="http://www.w3.org/1999/xlink" width="20px" height="19px" xmlns="http://www.w3.org/2000/svg">
  <g>
    <path d="M 14.8625468674114 18.6341474178404  L 14.8586847984459 18.6340938967136  C 14.6279722881855 18.6258783901726  14.4019788810364 18.5674472204047  14.1969655172414 18.4630046948357  L 9.66828169014084 16.2351164319249  L 5.10483924235065 18.4630582159624  C 4.63717707161916 18.7054005074351  4.07025874096277 18.6656094992532  3.64229367006637 18.3604046948357  C 3.21003872468889 18.0424822671148  2.99485100042806 17.5133586234875  3.08488651448923 16.9898  L 4.02579893152015 12.1917201877934  L 0.437048405374777 8.90017089201878  C 0.0599429963404546 8.52076573987917  -0.08679395417478 7.9742933578887  0.0506420592520633 7.46113051643192  C 0.208418133841747 6.94641948162551  0.658389395372233 6.57064950009643  1.20019685931682 6.50113990610329  L 6.18387955318115 5.60958497652582  L 8.41439663266958 1.15462910798122  C 8.64836677343583 0.679867955828386  9.1340412094462 0.375136027449456  9.67022179051319 0.36667323943662  C 10.209138993029 0.366015864250073  10.6993148456311 0.673576605399199  10.9260288165776 1.15462910798122  L 13.1556030435486 5.61053051643193  L 18.1363846527441 6.4659765258216  C 18.6698869183222 6.53732863362207  19.1085947208274 6.91512165887145  19.25116270034 7.42596713615024  C 19.4237187931876 7.93181463558755  19.2884043581817 8.49019437901621  18.902434191355 8.86500751173709  L 15.3146446495062 12.1917201877934  L 16.2207803140683 16.9898  C 16.3176219577273 17.5140500031115  16.1010511675791 18.0465917810581  15.6633912902704 18.3604046948357  C 15.437365105242 18.5412975888204  15.1538728108347 18.6382002460742  14.8625468674114 18.6341474178404  Z " fill-rule="nonzero" fill="#f4ea2a" stroke="none" />
  </g>
</svg>