<?xml version="1.0" encoding="utf-8"?>
<svg version="1.1" xmlns:xlink="http://www.w3.org/1999/xlink" width="21px" height="19px" xmlns="http://www.w3.org/2000/svg">
  <g transform="matrix(1 0 0 1 -208 -399 )">
    <path d="M 20.08025 15.935  C 18.8965 14.71225  16.52325 0.666749999999998  16.52325 0.66675  L 16.54 0.66125  L 12.0935 1.33375  C 12.3711424089672 1.84561937774124  12.5163405341668 2.4188060578349  12.515875 3.001125  C 12.515875 4.842875  11.022875 6.336  9.180875 6.336  C 7.339125 6.336  5.846 4.842875  5.846 3.001125  C 5.846375 2.7545  5.8725 2.508625  5.92375 2.2675  L 0.460125 3.10675  C 0.66025 8.398125  3.027875 18.91975  3.027875 18.91975  L 20.08025 15.935  Z M 4.188625 17.194  C 3.615875 14.4925  2.3995 8.461  2.045125 4.381  L 4.452375 4.01125  C 4.91875 6.194875  6.86175 7.83625  9.18075 7.83625  C 11.84675 7.83625  14.01575 5.66725  14.01575 3.001375  C 14.0158196846221 2.85508157013001  14.0094384868667 2.70885621502749  13.996625 2.563125  L 15.296875 2.3665  C 15.540875 3.741375  15.93875 5.921375  16.387625 8.14  C 17.068125 11.50375  17.571875 13.53125  17.958 14.784  L 4.188625 17.194  Z " fill-rule="nonzero" fill="#2c2c2c" stroke="none" transform="matrix(1 0 0 1 208 399 )" />
  </g>
</svg>