<?xml version="1.0" encoding="utf-8"?>
<svg version="1.1" xmlns:xlink="http://www.w3.org/1999/xlink" width="23px" height="21px" xmlns="http://www.w3.org/2000/svg">
  <g transform="matrix(1 0 0 1 -289 -399 )">
    <path d="M 16.0956895507812 19.9986770996094  C 14.8251570800781 20.5361040527344  13.4746995849609 20.8061955566406  12.0829015625 20.8061955566406  C 11.6502039550781 20.8061955566406  11.3029434570312 20.4561790283203  11.3029434570312 20.0262374511719  C 11.3029434570312 19.5962958740234  11.6529599853516 19.2462793457031  12.0829015625 19.2462793457031  C 14.4200198486328 19.2462793457031  16.6138242919922 18.3367875488281  18.267445703125 16.6859221679687  C 19.9183111083984 15.0323007324219  20.8278028808594 12.8357402832031  20.8278028808594 10.4986219726563  C 20.8278028808594 8.16150366210938  19.9183110839844 5.96769924316406  18.267445703125 4.31407783203125  C 16.6165802978516 2.66321242675781  14.4200198486328 1.75372065429688  12.0829015625 1.75372065429688  C 9.74578327636719 1.75372065429688  7.55197883300781 2.66321245117188  5.89835739746094 4.31407783203125  C 4.2474919921875 5.96494323730469  3.33800021972656 8.16150368652344  3.33800021972656 10.4986219726563  C 3.33800021972656 10.8679307617188  3.07893286132813 11.1876309082031  2.71513615722656 11.2647999023438  C 2.35409548339844 11.3392128662109  1.98754272460938 11.1518024414063  1.838716796875 10.8128100585938  L 0.672913671875001 8.13394333496094  C 0.502039453125001 7.73707419433594  0.681181787109376 7.27681623535157  1.07805092773438 7.10594201660156  C 1.47492006835938 6.93506779785156  1.93517802734375 7.11421013183594  2.10605224609375 7.51107927246094  L 2.17219711914063 7.65990520019531  C 2.28519458007813 7.26303605957031  2.42299636230469 6.87167897949219  2.58560246582031 6.48859001464844  C 3.10373718261719 5.26215412597656  3.84786682128906 4.15973984375  4.79318708496094 3.21166354980469  C 5.73850732421875 2.26634331054688  6.84092163085938 1.52221364746094  8.07011354980469 1.00407893066406  C 9.34064602050782 0.466651977539065  10.691103515625 0.193804418945315  12.0829015625 0.193804443359377  C 13.474699609375 0.193804467773439  14.8251571044922 0.466651977539065  16.0956895507813 1.00407893066406  C 17.3221254394531 1.52221364746094  18.4245397216797 2.26634328613281  19.3726160400391 3.21166354980469  C 20.3179362792969 4.1569837890625  21.0620659423828 5.25939809570313  21.5802006347656 6.48859001464844  C 22.1176275878906 7.75912248535156  22.3904751464844 9.10957998046875  22.3904751464844 10.5013780273438  C 22.3904751464844 11.8931760742188  22.1176276123047 13.2436335693359  21.5802006347656 14.514166015625  C 21.0620659179687 15.7406019042969  20.3179362792969 16.8430161865234  19.3726160400391 17.7910924804687  C 18.4272958007812 18.7364127197266  17.3248814941406 19.4805423828125  16.0956895507812 19.9986770996094  Z " fill-rule="nonzero" fill="#000000" stroke="none" transform="matrix(1 0 0 1 289 399 )" />
  </g>
</svg>