<?xml version="1.0" encoding="utf-8"?>
<svg version="1.1" xmlns:xlink="http://www.w3.org/1999/xlink" width="30px" height="30px" xmlns="http://www.w3.org/2000/svg">
  <g>
    <path d="M 30 15  C 30 6.75  23.25 0  15 0  C 6.75 0  0 6.75  0 15  C 0 23.25  6.75 30  15 30  C 23.25 30  30 23.25  30 15  Z M 9.64285713867188 12.8571428613281  C 8.46428572265625 12.8571428613281  7.5 11.8928571386719  7.5 10.7142857226562  C 7.5 9.53571430664063  8.46428572265625 8.57142858398438  9.64285713867188 8.57142858398438  C 10.8214285546875 8.57142858398438  11.7857142773438 9.53571430664063  11.7857142773438 10.7142857226562  C 11.7857142773438 11.8928571386719  10.8214285546875 12.8571428613281  9.64285713867188 12.8571428613281  Z M 21.4285714160156 20.3571428613281  C 21.4285713867187 20.8928571679688  21 21.4285714453125  20.3571428613281 21  L 9.64285713867188 21  C 9 21.4285714160156  8.5714285546875 20.8928571386719  8.57142858398437 20.3571428613281  C 8.57142861328125 19.8214285839844  9.10714286132812 19.2857142773438  9.64285713867187 19  L 20.3571428613281 19  C 21 19.2857142773438  21.4285714453125 19.8214285546875  21.4285714160156 20.3571428613281  Z M 22.5 10.7142857226562  C 22.5 11.8928571386719  21.5357142773438 12.8571428613281  20.3571428613281 12.8571428613281  C 19.1785714453125 12.8571428613281  18.2142857226562 11.8928571386719  18.2142857226562 10.7142857226562  C 18.2142857226562 9.53571430664063  19.1785714453125 8.57142858398438  20.3571428613281 8.57142858398438  C 21.5357142773438 8.57142858398438  22.5 9.53571430664063  22.5 10.7142857226562  Z " fill-rule="nonzero" fill="#ef7d6d" stroke="none" />
  </g>
</svg>