<?xml version="1.0" encoding="utf-8"?>
<svg version="1.1" xmlns:xlink="http://www.w3.org/1999/xlink" width="30px" height="30px" xmlns="http://www.w3.org/2000/svg">
  <g>
    <path d="M 30 15  C 30 6.7157287525381  23.2842712474619 0  15 0  C 6.7157287525381 0  0 6.7157287525381  0 15  C 0 23.2842712474619  6.7157287525381 30  15 30  C 23.2842712474619 30  30 23.2842712474619  30 15  Z M 6.67250000976563 10.5156249902344  C 6.64913808273567 9.34793098973063  7.57668540171861 8.38233045177673  8.74437500976562 8.35875  C 8.7731106326447 8.35760065616625  8.80186635872418 8.35702581202706  8.83062495767296 8.35702581202706  C 10.0225244834015 8.35702581202706  10.988749957673 9.32325128629848  10.988749957673 10.5151508120271  C 10.988749957673 11.7070503377556  10.0225244834015 12.6732758120271  8.83062495767296 12.6732758120271  C 7.63891060584146 12.6732758120271  6.67276185047225 11.7073393133004  6.67250000976563 10.5156249902344  Z M 22.9362500097656 23.1425000097656  L 22.9374999902344 23.1425000097656  C 22.7934223485687 23.2550916309994  22.6158235522628 23.3162548578326  22.4329704965048 23.3162548578326  C 22.163763079976 23.3162548578326  21.9117305109838 23.1840165991244  21.7587500097656 22.9625000097656  C 19.981875 20.473125  17.1025000195312 19.9487500195313  15.0006249902344 19.9487499902344  C 12.8987499609375 19.9487499609375  10.02 20.47125  8.24124999023437 22.9625000097656  C 8.08903274683472 23.1843891130792  7.83723816570589 23.3170039672822  7.56815664765331 23.3170039672822  C 7.38521661048992 23.3170039672822  7.20757975376202 23.2555489209542  7.06374999023438 23.1425000097656  C 6.6894077577504 22.8445358595389  6.6138756261393 22.3056483720437  6.89187500976562 21.9162500097656  C 7.78810398859684 20.6640678801566  9.01177352065278 19.6827969186931  10.42875 19.08  C 13.3628333230659 17.9041814375396  16.6371666769341 17.9041814375396  19.57125 19.08  C 20.9890010572134 19.6820702032636  22.2132549604459 20.6634629310499  23.109375 21.9162500097656  C 23.3864319827173 22.3061251728905  23.3104136151629 22.8445657705615  22.9362500097656 23.1425000097656  Z M 23.3316987842945 10.5573182981893  C 23.3316987842945 11.7085248152675  22.4109652318052 12.6483058871801  21.2600000097656 12.6718749902344  C 21.2310565802439 12.6730410395594  21.202092607577 12.6736242414881  21.1731256991554 12.6736242414881  C 19.9812261734268 12.6736242414881  19.0150006991554 11.7073987672167  19.0150006991554 10.5154992414881  C 19.0150006991554 9.32359971575953  19.9812261734268 8.35737424148811  21.1731256991554 8.35737424148811  C 22.3643421570258 8.35737424148811  23.3302844590986 9.32253392366592  23.3312499902344 10.5137499902344  C 23.331549178338 10.5282708333657  23.3316987842945 10.5427943731424  23.3316987842945 10.5573182981893  Z " fill-rule="nonzero" fill="#ef7d6d" stroke="none" />
  </g>
</svg>