<?xml version="1.0" encoding="utf-8"?>
<svg version="1.1" xmlns:xlink="http://www.w3.org/1999/xlink" width="20px" height="20px" xmlns="http://www.w3.org/2000/svg">
  <g transform="matrix(1 0 0 1 -313 -51 )">
    <path d="M 19.2768359375 16.7237890625  L 5.20474609375 16.7237890625  C 4.91009765625 15.59328125  3.8853125 14.75419921875  2.66509765625 14.75419921875  C 1.22078125 14.75419921875  0.0422460937500002 15.92955078125  0.0422460937500002 17.377109375  C 0.0421875 18.82146484375  1.217578125 20  2.66513671875 20  C 3.8853125 20  4.9133203125 19.164140625  5.20474609375 18  L 19.28 18  C 19.6419140625 18.0336328125  19.93654296875 17.738984375  19.93654296875 17.37712890625  C 19.93333984375 17.0151953125  19.63869140625 16.72380859375  19.27681640625 16.72380859375  Z M 2.665078125 18.69015625  C 1.941328125 18.69015625  1.35525390625 18.1008984375  1.35525390625 17.3803125  C 1.35525390625 16.6565234375  1.94455078125 16.07044921875  2.66513671875 16.07044921875  C 3.38572265625 16.07044921875  3.9749609375 16.6597265625  3.9749609375 17.3803125  C 3.9749609375 18.10087890625  3.385703125 18.69015625  2.66513671875 18.69015625  Z M 19.2896484375 9.34505859375  L 17.268828125 9.34505859375  C 16.97740234375 8.21458984375  15.94935546875 7.3787109375  14.7291796875 7.3787109375  C 13.5090234375 7.3787109375  12.48099609375 8.2145703125  12.18955078125 9.345078125  L 0.78203125 9.345078125  C 0.4201171875 9.345078125  0.12552734375 9.63970703125  0.12552734375 10.00158203125  C 0.12552734375 10.36349609375  0.42015625 10.658125  0.78203125 10.658125  L 12.18953125 10.658125  C 12.4809765625 11.7886328125  13.508984375 12.6244921875  14.7291796875 12.6244921875  C 15.94935546875 12.6244921875  16.9773828125 11.7886328125  17.2687890625 10.658125  L 19.28962890625 10.658125  C 19.6515234375 10.658125  19.94611328125 10.36349609375  19.94611328125 10.0016015625  C 19.94611328125 9.63650390625  19.6515234375 9.345078125  19.28962890625 9.345078125  Z M 16.03900390625 10.0016015625  C 16.03900390625 10.72216796875  15.45294921875 11.31142578125  14.7291796875 11.31142578125  C 14.00541015625 11.31142578125  13.4193359375 10.7221875  13.4193359375 10.0016015625  C 13.4193359375 9.281015625  14.00859375 8.69177734375  14.7291796875 8.69177734375  C 15.45294921875 8.69177734375  16.03900390625 9.28103515625  16.03900390625 10.0016015625  Z M 2.665078125 5.24259765625  C 3.88529296875 5.24259765625  4.91328125 4.40671875  5.20474609375 3.27623046875  L 19.28 3.27623046875  C 19.641875 3.27623046875  19.93650390625 2.98158203125  19.93650390625 2.6196875  C 19.93650390625 2.2578125  19.641875 1.9631640625  19.28 2  L 5.20474609375 2  C 4.910078125 0.835859375  3.88529296875 0  2.66509765625 0  C 1.2175390625 0  0.0421875 1.1753125  0.0421875 2.622890625  C 0.0421875 4.06724609375  1.217578125 5.2426171875  2.6651171875 5.2426171875  Z M 2.665078125 1.30984375  C 3.38888671875 1.30984375  3.97494140625 1.8991015625  3.97494140625 2.6196875  C 3.97494140625 3.3434765625  3.38568359375 3.92955078125  2.66509765625 3.92955078125  C 1.94451171875 3.92955078125  1.3552734375 3.3402734375  1.3552734375 2.61966796875  C 1.352109375 1.8991015625  1.94134765625 1.30982421875  2.66515625 1.30982421875  Z " fill-rule="nonzero" fill="#ffffff" stroke="none" transform="matrix(1 0 0 1 313 51 )" />
  </g>
</svg>