<svg t="1585618844508" class="icon" viewBox="0 0 1024 1024" version="1.1" xmlns="http://www.w3.org/2000/svg" p-id="32279" width="128" height="128"><path d="M194.576927 845.36789c32.391176-51.07357 102.627783-96.065958 210.709822-134.977163-1.170262-13.959552 5.036305-33.603233 16.132895-36.967736 12.87288-4.848228 63.465807-7.523112 81.709353 5.642334 3.280913 5.851309-2.946552 29.570009 7.230547 31.346299 4.534765 0.773209 10.344279-3.845146 9.466582-31.346299 4.075019-11.828004 53.226016-13.228138 76.255097-5.642334 7.460419 2.465909 5.642334 29.089366 11.368258 36.988633 80.998837 33.770413 145.614008 71.448664 193.845513 112.99296a41.795065 41.795065 0 0 1 14.48199 29.925266l5.266178 126.994307a41.795065 41.795065 0 0 1-41.75327 43.52956H229.87286a41.795065 41.795065 0 0 1-41.795066-41.795065v-114.309504a41.795065 41.795065 0 0 1 6.499133-22.381258z" fill="#C6BEBE" opacity=".369" p-id="32280"></path><path d="M417.950654 459.745719h167.180262v271.667926h-167.180262z" fill="#F0A98B" p-id="32281"></path><path d="M584.796555 663.642946c0.292565-35.839269 0.292565-87.769637 0-155.728414-42.923532-6.729006-69.275321-10.093508-79.034469-10.093508-40.394931 0-34.815289 55.608335-34.815289 83.234873s24.575498 80.309218 113.849758 82.587049z" fill="#E38661" p-id="32282"></path><path d="M419.831432 510.004286c-31.032836 0-51.575111-15.903022-61.647721-47.68817-8.421706-45.075978 1.337442-87.247199 29.277443-126.492765 160.263178-78.031387 256.621702-84.885778 289.096467-20.563173 9.675558 19.163037 6.206567 79.87037 9.090427 111.153977 16.216485 175.957225-58.889247 201.24324-82.963205 208.975327-28.128079 5.705026-110.338973-16.300076-148.832228-76.464072-35.358625-50.98998-46.705986-67.290055-34.021183-48.921124z" fill="#F0A98B" p-id="32283"></path><path d="M415.986286 564.233383c6.624518 0.041795 2.256934-45.514826 1.77629-68.230444-50.279464-4.890023-55.002306-36.257219-56.987571-58.366809-0.292565-40.22775-1.212057-48.649456 22.318565-51.24075 22.61113 1.985266 28.065386 15.296994 61.438746 15.338789 35.567601-13.165446 46.935858-93.453766 111.948082-50.216771 31.93143 15.610457 87.623355-24.387421 106.514725-18.264444 40.311341 13.102753-2.988347 126.952511 26.832432 104.383176 92.701455-70.153017 56.924879-150.42044 49.485357-167.347442C689.827555 157.650987 606.279219 146.282729 531.98849 146.282729c-74.290729 0-253.570662 45.096876-260.236975 240.112651-2.215138 59.495276 38.305177 177.838003 144.234771 177.838003z" fill="#4C1C08" p-id="32284"></path><path d="M194.576927 845.36789c32.391176-51.07357 102.627783-96.065958 210.709822-134.977163-1.170262-13.959552 5.036305-33.603233 16.132895-36.967736 12.87288-4.848228 63.465807-7.523112 81.709353 5.642334 3.280913 5.851309-2.946552 29.570009 7.230547 31.346299 4.534765 0.773209 10.344279-3.845146 9.466582-31.346299 4.075019-11.828004 53.226016-13.228138 76.255097-5.642334 7.460419 2.465909 5.642334 29.089366 11.368258 36.988633 80.998837 33.770413 145.614008 71.448664 193.845513 112.99296a41.795065 41.795065 0 0 1 14.48199 29.925266l5.266178 126.994307a41.795065 41.795065 0 0 1-41.75327 43.52956H229.87286a41.795065 41.795065 0 0 1-41.795066-41.795065v-114.309504a41.795065 41.795065 0 0 1 6.499133-22.381258z" fill="#989DBD" p-id="32285"></path></svg>